<?xml version="1.0" encoding="UTF-8" standalone="no"?>
<svg xmlns:dc="http://purl.org/dc/elements/1.1/" xmlns:cc="http://creativecommons.org/ns#" xmlns:rdf="http://www.w3.org/1999/02/22-rdf-syntax-ns#" xmlns:svg="http://www.w3.org/2000/svg" xmlns="http://www.w3.org/2000/svg" xmlns:sodipodi="http://sodipodi.sourceforge.net/DTD/sodipodi-0.dtd" xmlns:inkscape="http://www.inkscape.org/namespaces/inkscape" inkscape:version="1.0 (4035a4fb49, 2020-05-01)" sodipodi:docname="final logo 1.ai.svg" viewBox="0 0 673.04132 420.13068" height="420.13068" width="673.04132" xml:space="preserve" id="svg2" version="1.1"><metadata id="metadata8"><rdf:RDF><cc:Work rdf:about=""><dc:format>image/svg+xml</dc:format><dc:type rdf:resource="http://purl.org/dc/dcmitype/StillImage"/><dc:title/></cc:Work></rdf:RDF></metadata><defs id="defs6"><clipPath id="clipPath18" clipPathUnits="userSpaceOnUse"><path id="path16" d="M 0,315.098 H 504.781 V 0 H 0 Z"/></clipPath></defs><sodipodi:namedview inkscape:current-layer="g10" inkscape:window-maximized="1" inkscape:window-y="31" inkscape:window-x="0" inkscape:cy="210.06534" inkscape:cx="336.52066" inkscape:zoom="1.8468405" showgrid="false" id="namedview4" inkscape:window-height="1025" inkscape:window-width="1920" inkscape:pageshadow="2" inkscape:pageopacity="0" guidetolerance="10" gridtolerance="10" objecttolerance="10" borderopacity="1" bordercolor="#666666" pagecolor="#ffffff"/><g transform="matrix(1.3333333,0,0,-1.3333333,0,420.13067)" inkscape:label="final logo 1" inkscape:groupmode="layer" id="g10"><g id="g12"><g clip-path="url(#clipPath18)" id="g14"><g transform="translate(108.4551,150.2159)" id="g20"><path id="path22" style="fill:#231f20;fill-opacity:1;fill-rule:nonzero;stroke:none" d="M 0,0 C 11.436,0.004 20.693,9.256 20.69,20.677 20.687,32.055 11.417,41.349 0.046,41.378 -11.386,41.406 -20.689,32.113 -20.687,20.665 -20.687,9.227 -11.445,-0.005 0,0 m -1.525,-8.896 v 5.835 c -2.009,0.393 -4.002,0.784 -6.079,1.19 -0.137,-0.335 -0.318,-0.78 -0.514,-1.259 0.451,-0.197 0.861,-0.376 1.345,-0.587 -0.362,-0.898 -0.718,-1.779 -1.099,-2.724 -1.836,0.748 -3.629,1.479 -5.481,2.233 0.372,0.912 0.729,1.793 1.107,2.723 0.462,-0.176 0.892,-0.34 1.373,-0.524 0.189,0.451 0.369,0.88 0.524,1.248 -1.793,1.19 -3.552,2.357 -5.299,3.516 -1.3,-1.318 -2.674,-2.71 -4.114,-4.17 0.61,-0.559 1.316,-1.204 2,-1.831 -0.771,-0.756 -1.443,-1.415 -2.068,-2.028 -2.007,2.013 -4.083,4.095 -6.12,6.14 0.59,0.593 1.265,1.272 2.018,2.03 0.632,-0.679 1.286,-1.382 1.911,-2.053 1.439,1.437 2.817,2.814 4.148,4.143 -1.13,1.676 -2.267,3.364 -3.444,5.111 -0.338,-0.138 -0.768,-0.312 -1.257,-0.512 0.177,-0.452 0.345,-0.879 0.54,-1.376 -0.892,-0.378 -1.767,-0.75 -2.705,-1.147 -0.767,1.823 -1.518,3.607 -2.295,5.453 0.914,0.386 1.791,0.756 2.707,1.143 0.21,-0.466 0.4,-0.889 0.606,-1.346 0.458,0.191 0.886,0.371 1.244,0.521 -0.425,2.113 -0.842,4.182 -1.271,6.309 h -5.79 v -2.88 h -2.924 v 8.8 h 2.89 v -2.89 h 5.832 c 0.393,2.016 0.783,4.013 1.19,6.095 -0.338,0.139 -0.781,0.321 -1.259,0.518 -0.201,-0.465 -0.387,-0.892 -0.588,-1.357 -0.914,0.375 -1.795,0.737 -2.72,1.116 0.754,1.846 1.486,3.637 2.235,5.471 0.924,-0.376 1.791,-0.728 2.717,-1.105 -0.179,-0.466 -0.344,-0.897 -0.527,-1.372 0.451,-0.189 0.88,-0.368 1.251,-0.522 1.196,1.797 2.376,3.571 3.545,5.328 -1.314,1.311 -2.691,2.684 -4.077,4.067 -0.615,-0.65 -1.274,-1.346 -1.896,-2.004 -0.796,0.787 -1.475,1.459 -2.115,2.093 2.022,2.018 4.092,4.085 6.134,6.124 0.601,-0.611 1.27,-1.291 2.004,-2.038 -0.638,-0.581 -1.346,-1.225 -2.035,-1.851 1.481,-1.473 2.861,-2.847 4.209,-4.188 1.644,1.109 3.33,2.246 5.097,3.438 -0.138,0.329 -0.323,0.768 -0.527,1.253 -0.47,-0.188 -0.899,-0.36 -1.367,-0.547 -0.38,0.903 -0.751,1.783 -1.144,2.714 1.823,0.767 3.608,1.518 5.452,2.293 0.384,-0.912 0.753,-1.789 1.14,-2.707 -0.471,-0.212 -0.893,-0.402 -1.348,-0.607 0.199,-0.466 0.381,-0.893 0.531,-1.245 2.109,0.428 4.159,0.843 6.288,1.275 v 5.819 h -2.866 v 2.926 H 4.38 V 50.273 H 1.516 V 44.4 c 2.021,-0.395 4.001,-0.78 6.073,-1.184 0.139,0.336 0.321,0.777 0.521,1.261 -0.464,0.198 -0.874,0.373 -1.352,0.577 0.362,0.898 0.717,1.779 1.1,2.73 1.829,-0.746 3.632,-1.482 5.482,-2.237 -0.381,-0.934 -0.741,-1.817 -1.113,-2.73 -0.455,0.181 -0.87,0.346 -1.355,0.538 -0.198,-0.46 -0.386,-0.897 -0.539,-1.251 1.81,-1.202 3.571,-2.373 5.303,-3.522 1.311,1.311 2.697,2.697 4.096,4.097 -0.619,0.594 -1.297,1.244 -1.928,1.849 0.757,0.753 1.432,1.426 2.068,2.058 1.975,-1.976 4.044,-4.048 6.096,-6.102 -0.61,-0.594 -1.296,-1.261 -2.029,-1.975 -0.587,0.615 -1.25,1.31 -1.899,1.991 -1.44,-1.466 -2.813,-2.864 -4.136,-4.211 1.091,-1.619 2.229,-3.308 3.405,-5.052 0.347,0.147 0.774,0.327 1.255,0.531 -0.182,0.455 -0.354,0.883 -0.547,1.365 0.901,0.381 1.778,0.75 2.711,1.144 0.768,-1.827 1.52,-3.612 2.293,-5.451 -0.922,-0.389 -1.799,-0.76 -2.707,-1.143 -0.202,0.452 -0.392,0.876 -0.601,1.345 -0.46,-0.191 -0.889,-0.368 -1.249,-0.516 0.427,-2.127 0.844,-4.213 1.271,-6.346 h 5.81 v 2.9 h 2.924 v -8.808 h -2.885 v 2.873 h -5.943 c -0.145,-0.972 -0.261,-1.964 -0.449,-2.943 -0.166,-0.866 -0.379,-1.727 -0.636,-2.57 -0.119,-0.389 -0.078,-0.579 0.315,-0.697 0.298,-0.089 0.583,-0.225 0.923,-0.359 0.189,0.433 0.373,0.855 0.587,1.345 0.909,-0.368 1.788,-0.725 2.723,-1.104 -0.748,-1.834 -1.478,-3.628 -2.232,-5.477 -0.907,0.369 -1.789,0.728 -2.721,1.107 0.178,0.466 0.342,0.898 0.523,1.377 -0.444,0.183 -0.875,0.361 -1.246,0.514 C 20.232,8.526 19.06,6.766 17.891,5.01 c 1.311,-1.293 2.707,-2.669 4.14,-4.083 0.583,0.602 1.247,1.29 1.884,1.949 0.734,-0.742 1.407,-1.421 2.051,-2.071 -2.012,-2.013 -4.08,-4.081 -6.123,-6.125 -0.628,0.634 -1.299,1.314 -2.037,2.061 0.643,0.595 1.343,1.242 2.013,1.863 -1.466,1.457 -2.844,2.827 -4.19,4.165 -1.624,-1.092 -3.315,-2.229 -5.067,-3.407 0.141,-0.34 0.324,-0.782 0.522,-1.259 0.478,0.186 0.909,0.354 1.375,0.536 0.382,-0.903 0.748,-1.767 1.142,-2.699 -1.802,-0.759 -3.585,-1.512 -5.451,-2.299 -0.378,0.893 -0.754,1.782 -1.144,2.706 0.463,0.21 0.884,0.401 1.345,0.61 C 8.154,-2.57 7.976,-2.144 7.834,-1.805 5.693,-2.233 3.621,-2.648 1.492,-3.074 v -5.779 h 2.883 v -2.917 h -8.788 v 2.874 z"/></g><g transform="translate(120.2778,170.9092)" id="g24"><path id="path26" style="fill:#231f20;fill-opacity:1;fill-rule:nonzero;stroke:none" d="m 0,0 c -0.012,-0.818 0.667,-1.514 1.475,-1.509 0.782,0.005 1.459,0.673 1.479,1.46 C 2.973,0.733 2.315,1.421 1.526,1.443 0.686,1.466 0.012,0.829 0,0 M 1.44,4.397 C 3.93,4.401 5.908,2.438 5.909,-0.037 5.91,-2.453 3.899,-4.46 1.471,-4.466 -0.953,-4.473 -2.95,-2.475 -2.954,-0.039 -2.958,2.425 -1.009,4.393 1.44,4.397"/></g><g transform="translate(93.6792,170.8877)" id="g28"><path id="path30" style="fill:#231f20;fill-opacity:1;fill-rule:nonzero;stroke:none" d="M 0,0 C -0.002,-0.799 0.661,-1.479 1.452,-1.489 2.26,-1.5 2.966,-0.79 2.953,0.021 2.94,0.815 2.266,1.468 1.461,1.464 0.651,1.46 0.002,0.81 0,0 M 1.469,4.419 C 3.918,4.42 5.903,2.45 5.908,0.014 5.913,-2.439 3.889,-4.461 1.443,-4.445 c -2.405,0.015 -4.392,2.002 -4.397,4.397 -0.006,2.504 1.937,4.466 4.423,4.467"/></g><g transform="translate(109.9087,157.564)" id="g32"><path id="path34" style="fill:#231f20;fill-opacity:1;fill-rule:nonzero;stroke:none" d="M 0,0 C 0.011,0.808 -0.621,1.48 -1.422,1.511 -2.209,1.541 -2.95,0.817 -2.947,0.02 -2.945,-0.777 -2.282,-1.431 -1.471,-1.437 -0.641,-1.443 -0.012,-0.828 0,0 M 2.956,0.007 C 2.949,-2.47 1.007,-4.395 -1.479,-4.389 c -2.45,0.006 -4.447,2.006 -4.425,4.432 0.022,2.435 2.046,4.443 4.461,4.429 C 0.998,4.458 2.962,2.463 2.956,0.007"/></g><g transform="translate(109.9082,184.1704)" id="g36"><path id="path38" style="fill:#231f20;fill-opacity:1;fill-rule:nonzero;stroke:none" d="M 0,0 C 0.007,0.808 -0.633,1.481 -1.429,1.504 -2.219,1.526 -2.953,0.8 -2.944,0.003 -2.935,-0.798 -2.275,-1.443 -1.462,-1.445 -0.631,-1.447 -0.008,-0.831 0,0 m 2.957,-0.01 c -0.005,-2.468 -1.956,-4.395 -4.444,-4.389 -2.422,0.004 -4.396,1.964 -4.416,4.384 -0.021,2.441 2.038,4.504 4.47,4.478 2.452,-0.026 4.395,-2.007 4.39,-4.473"/></g><g transform="translate(109.9101,170.855)" id="g40"><path id="path42" style="fill:#231f20;fill-opacity:1;fill-rule:nonzero;stroke:none" d="M 0,0 C 0.014,0.828 -0.603,1.478 -1.418,1.497 -2.255,1.516 -2.95,0.851 -2.946,0.033 -2.942,-0.752 -2.26,-1.445 -1.479,-1.457 -0.696,-1.468 -0.013,-0.796 0,0 m 2.954,0.043 c 0.004,-2.46 -1.946,-4.439 -4.39,-4.455 -2.439,-0.016 -4.49,2.03 -4.471,4.46 0.02,2.443 2,4.404 4.448,4.403 C 1.009,4.45 2.95,2.512 2.954,0.043"/></g><g transform="translate(121.7314,160.5616)" id="g44"><path id="path46" style="fill:#231f20;fill-opacity:1;fill-rule:nonzero;stroke:none" d="m 0,0 c 0.008,-1.651 -1.299,-2.981 -2.935,-2.985 -1.615,-0.004 -2.967,1.351 -2.967,2.974 -10e-4,1.6 1.321,2.926 2.926,2.934 C -1.302,2.933 -0.009,1.662 0,0"/></g><g transform="translate(121.7309,181.1685)" id="g48"><path id="path50" style="fill:#231f20;fill-opacity:1;fill-rule:nonzero;stroke:none" d="m 0,0 c -0.03,-1.642 -1.388,-2.95 -3.015,-2.904 -1.592,0.046 -2.924,1.425 -2.892,2.995 0.034,1.668 1.378,2.942 3.072,2.912 C -1.232,2.975 0.029,1.639 0,0"/></g><g transform="translate(101.0415,160.5152)" id="g52"><path id="path54" style="fill:#231f20;fill-opacity:1;fill-rule:nonzero;stroke:none" d="m 0,0 c -0.011,-1.646 -1.35,-2.967 -2.978,-2.938 -1.598,0.028 -2.92,1.367 -2.925,2.96 -0.005,1.627 1.334,2.953 2.975,2.947 C -1.263,2.964 0.011,1.671 0,0"/></g><g transform="translate(97.9809,184.2862)" id="g56"><path id="path58" style="fill:#231f20;fill-opacity:1;fill-rule:nonzero;stroke:none" d="M 0,0 C 1.64,0.007 2.968,-1.309 2.975,-2.947 2.982,-4.573 1.644,-5.909 0.01,-5.908 -1.602,-5.907 -2.906,-4.607 -2.923,-2.986 -2.941,-1.334 -1.642,-0.008 0,0"/></g><g transform="translate(89.4111,207.9029)" id="g60"><path id="path62" style="fill:#231f20;fill-opacity:1;fill-rule:nonzero;stroke:none" d="m 0,0 h -4.023 c -2.682,0 -4.619,-0.67 -5.811,-2.012 -1.192,-1.341 -1.788,-3.799 -1.788,-7.375 v -58.705 c 0,-3.576 0.596,-6.034 1.788,-7.376 1.192,-1.341 3.129,-2.011 5.811,-2.011 H 0 v -13.41 h -5.066 c -8.246,0 -14.132,1.736 -17.656,5.215 -3.528,3.475 -5.29,9.336 -5.29,17.582 v 58.705 c 0,8.244 1.762,14.104 5.29,17.582 3.524,3.476 9.41,5.215 17.656,5.215 H 0 Z"/></g><g transform="translate(128.6435,221.3125)" id="g64"><path id="path66" style="fill:#231f20;fill-opacity:1;fill-rule:nonzero;stroke:none" d="m 0,0 h 5.066 c 8.246,0 14.132,-1.739 17.656,-5.215 3.528,-3.478 5.29,-9.338 5.29,-17.582 v -58.705 c 0,-8.246 -1.762,-14.106 -5.29,-17.582 -3.524,-3.479 -9.41,-5.215 -17.656,-5.215 H 0 v 13.41 h 4.023 c 2.682,0 4.619,0.67 5.811,2.011 1.192,1.342 1.788,3.8 1.788,7.376 v 58.705 c 0,3.576 -0.596,6.035 -1.788,7.376 -1.192,1.341 -3.129,2.011 -5.811,2.011 H 0 Z"/></g><g transform="translate(184.728,136.3692)" id="g68"><path id="path70" style="fill:#231f20;fill-opacity:1;fill-rule:nonzero;stroke:none" d="m 0,0 c 1.083,1.122 1.625,2.943 1.625,5.464 v 4.844 c 0,2.401 -0.473,4.232 -1.418,5.493 -0.945,1.26 -2.521,1.89 -4.726,1.89 h -5.848 V -1.684 h 5.139 C -2.826,-1.684 -1.083,-1.122 0,0 M 2.215,17.514 C 3.633,15.742 4.342,13.28 4.342,10.13 V 5.641 c 0,-3.308 -0.779,-5.77 -2.334,-7.384 -1.556,-1.615 -3.967,-2.422 -7.236,-2.422 h -5.139 v -17.012 h -2.717 v 41.349 h 8.565 c 3.072,0 5.316,-0.886 6.734,-2.658"/></g><g transform="translate(206.0229,137.6387)" id="g72"><path id="path74" style="fill:#231f20;fill-opacity:1;fill-rule:nonzero;stroke:none" d="m 0,0 c 1.26,0.984 1.89,2.796 1.89,5.435 v 3.898 c 0,2.323 -0.493,4.085 -1.477,5.287 -0.984,1.201 -2.56,1.802 -4.725,1.802 H -10.16 V -1.477 h 4.371 C -3.19,-1.477 -1.261,-0.984 0,0 M 4.607,9.569 V 5.967 C 4.607,3.524 4.125,1.604 3.16,0.207 2.195,-1.191 0.688,-2.126 -1.359,-2.599 2.618,-3.466 4.607,-6.281 4.607,-11.046 v -6.438 c 0,-2.285 0.334,-3.939 1.004,-4.962 H 2.776 c -0.354,0.591 -0.59,1.269 -0.709,2.038 -0.118,0.767 -0.177,1.742 -0.177,2.924 v 6.498 c 0,2.598 -0.65,4.42 -1.949,5.464 -1.3,1.043 -3.23,1.565 -5.789,1.565 h -4.312 v -18.489 h -2.717 v 41.349 h 8.624 c 5.907,0 8.86,-3.112 8.86,-9.334"/></g><g transform="translate(220.021,119.416)" id="g76"><path id="path78" style="fill:#231f20;fill-opacity:1;fill-rule:nonzero;stroke:none" d="m 0,0 c 1.024,-1.398 2.619,-2.097 4.785,-2.097 2.205,0 3.829,0.699 4.873,2.097 1.043,1.397 1.566,3.298 1.566,5.7 v 21.501 c 0,2.403 -0.523,4.303 -1.566,5.7 -1.044,1.398 -2.668,2.098 -4.873,2.098 -2.166,0 -3.761,-0.7 -4.785,-2.098 -1.024,-1.397 -1.536,-3.297 -1.536,-5.7 V 5.7 C -1.536,3.298 -1.024,1.397 0,0 m -1.979,34.615 c 1.516,1.909 3.771,2.864 6.764,2.864 3.071,0 5.365,-0.945 6.882,-2.834 1.515,-1.891 2.273,-4.431 2.273,-7.621 V 5.877 c 0,-3.189 -0.758,-5.73 -2.273,-7.62 -1.517,-1.89 -3.811,-2.835 -6.882,-2.835 -2.993,0 -5.248,0.954 -6.764,2.865 -1.516,1.909 -2.274,4.44 -2.274,7.59 v 21.147 c 0,3.151 0.758,5.68 2.274,7.591"/></g><g transform="translate(245.4214,154.0606)" id="g80"><path id="path82" style="fill:#231f20;fill-opacity:1;fill-rule:nonzero;stroke:none" d="M 0,0 H -8.388 V 2.481 H 11.164 V 0 H 2.717 V -38.868 H 0 Z"/></g><path id="path84" style="fill:#231f20;fill-opacity:1;fill-rule:nonzero;stroke:none" d="m 262.669,115.192 h -2.717 v 41.349 h 2.717 z"/><g transform="translate(277.9682,118.3233)" id="g86"><path id="path88" style="fill:#231f20;fill-opacity:1;fill-rule:nonzero;stroke:none" d="m 0,0 8.388,38.218 h 2.54 L 1.949,-3.131 h -4.016 l -9.097,41.349 h 2.776 z"/></g><g transform="translate(304.9038,130.1367)" id="g90"><path id="path92" style="fill:#4ab969;fill-opacity:1;fill-rule:nonzero;stroke:none" d="M 0,0 V -14.944 H -2.717 V 26.405 H 0 V 4.549 l 13.468,21.856 h 2.835 L 4.489,7.147 17.071,-14.944 H 14.235 L 2.835,4.489 Z"/></g><g transform="translate(329.7124,119.416)" id="g94"><path id="path96" style="fill:#4ab969;fill-opacity:1;fill-rule:nonzero;stroke:none" d="m 0,0 c 1.023,-1.398 2.618,-2.097 4.785,-2.097 2.205,0 3.829,0.699 4.873,2.097 1.043,1.397 1.566,3.298 1.566,5.7 v 21.501 c 0,2.403 -0.523,4.303 -1.566,5.7 -1.044,1.398 -2.668,2.098 -4.873,2.098 -2.167,0 -3.762,-0.7 -4.785,-2.098 -1.024,-1.397 -1.536,-3.297 -1.536,-5.7 V 5.7 C -1.536,3.298 -1.024,1.397 0,0 m -1.979,34.615 c 1.516,1.909 3.771,2.864 6.764,2.864 3.071,0 5.365,-0.945 6.881,-2.834 1.516,-1.891 2.274,-4.431 2.274,-7.621 V 5.877 c 0,-3.189 -0.758,-5.73 -2.274,-7.62 -1.516,-1.89 -3.81,-2.835 -6.881,-2.835 -2.993,0 -5.248,0.954 -6.764,2.865 -1.516,1.909 -2.274,4.44 -2.274,7.59 v 21.147 c 0,3.151 0.758,5.68 2.274,7.591"/></g><g transform="translate(358.6577,118.3233)" id="g98"><path id="path100" style="fill:#4ab969;fill-opacity:1;fill-rule:nonzero;stroke:none" d="m 0,0 8.388,38.218 h 2.54 L 1.949,-3.131 h -4.016 l -9.097,41.349 h 2.776 z"/></g><path id="path102" style="fill:#4ab969;fill-opacity:1;fill-rule:nonzero;stroke:none" d="m 376.437,115.192 h -2.717 v 41.349 h 2.717 z"/><g transform="translate(395.103,119.711)" id="g104"><path id="path106" style="fill:#4ab969;fill-opacity:1;fill-rule:nonzero;stroke:none" d="M 0,0 C 1.062,1.359 1.595,3.239 1.595,5.642 V 26.67 c 0,2.363 -0.533,4.233 -1.595,5.612 -1.063,1.378 -2.698,2.068 -4.903,2.068 h -6.321 V -2.038 h 6.321 c 2.205,0 3.84,0.68 4.903,2.038 M 2.037,34.084 C 3.553,32.253 4.312,29.742 4.312,26.552 V 5.76 c 0,-3.19 -0.759,-5.7 -2.275,-7.531 -1.516,-1.832 -3.809,-2.748 -6.881,-2.748 h -9.096 v 41.35 h 9.096 c 3.072,0 5.365,-0.916 6.881,-2.747"/></g><g transform="translate(420.2661,126.711)" id="g108"><path id="path110" style="fill:#4ab969;fill-opacity:1;fill-rule:nonzero;stroke:none" d="M 0,0 -6.084,26.759 -12.05,0 Z m -14.531,-11.519 h -2.481 l 9.037,41.409 h 3.958 L 5.198,-11.519 H 2.481 l -2.068,9.157 h -12.877 z"/></g><g transform="translate(176.7866,182.4009)" id="g112"><path id="path114" style="fill:#4ab969;fill-opacity:1;fill-rule:nonzero;stroke:none" d="m 0,0 c 0,-3.152 1.321,-4.728 3.963,-4.728 2.641,0 3.962,1.576 3.962,4.728 v 37.542 h 7.231 V 0.486 c 0,-3.939 -0.973,-6.964 -2.92,-9.072 -1.947,-2.109 -4.774,-3.163 -8.482,-3.163 -3.708,0 -6.535,1.054 -8.482,3.163 -1.946,2.108 -2.919,5.133 -2.919,9.072 V 37.542 H 0 Z"/></g><g transform="translate(201.3271,178.1602)" id="g116"><path id="path118" style="fill:#4ab969;fill-opacity:1;fill-rule:nonzero;stroke:none" d="M 0,0 C 1.391,0 2.468,0.335 3.233,1.008 3.998,1.679 4.38,2.896 4.38,4.658 v 37.124 h 7.647 V 5.214 c 0,-8.158 -3.661,-12.236 -10.984,-12.236 -1.623,0 -2.851,0.047 -3.685,0.139 V 0.069 C -2.085,0.022 -1.206,0 0,0"/></g><g transform="translate(240.3286,199.4336)" id="g120"><path id="path122" style="fill:#4ab969;fill-opacity:1;fill-rule:nonzero;stroke:none" d="M 0,0 V -6.952 H -10.498 V -21.204 H 2.711 v -6.952 H -18.145 V 20.509 H 2.711 V 13.557 H -10.498 V 0 Z"/></g><g transform="translate(259.0298,178.2295)" id="g124"><path id="path126" style="fill:#4ab969;fill-opacity:1;fill-rule:nonzero;stroke:none" d="m 0,0 h 4.311 c 1.251,0 2.212,0.371 2.884,1.112 0.672,0.741 1.008,1.947 1.008,3.616 v 25.305 c 0,1.669 -0.336,2.874 -1.008,3.615 -0.672,0.741 -1.633,1.113 -2.884,1.113 H 0 Z m 4.449,41.713 c 3.801,0 6.651,-1.02 8.551,-3.059 1.9,-2.04 2.852,-5.029 2.852,-8.968 V 5.075 C 15.852,1.135 14.9,-1.854 13,-3.893 11.1,-5.933 8.25,-6.952 4.449,-6.952 H -7.647 v 48.665 z"/></g><path id="path128" style="fill:#4ab969;fill-opacity:1;fill-rule:nonzero;stroke:none" d="m 291.009,171.277 h -7.647 v 48.665 h 7.647 z"/><g transform="translate(306.9975,171.2774)" id="g130"><path id="path132" style="fill:#4ab969;fill-opacity:1;fill-rule:nonzero;stroke:none" d="m 0,0 h -6.883 v 48.665 h 9.595 l 7.855,-29.129 v 29.129 h 6.814 V 0 H 9.524 L 0,35.248 Z"/></g><g transform="translate(334.0405,178.1602)" id="g134"><path id="path136" style="fill:#4ab969;fill-opacity:1;fill-rule:nonzero;stroke:none" d="M 0,0 C 1.391,0 2.468,0.335 3.232,1.008 3.998,1.679 4.38,2.896 4.38,4.658 v 37.124 h 7.647 V 5.214 c 0,-8.158 -3.662,-12.236 -10.984,-12.236 -1.623,0 -2.851,0.047 -3.685,0.139 V 0.069 C -2.086,0.022 -1.206,0 0,0"/></g><g transform="translate(373.0424,199.4336)" id="g138"><path id="path140" style="fill:#4ab969;fill-opacity:1;fill-rule:nonzero;stroke:none" d="M 0,0 V -6.952 H -10.497 V -21.204 H 2.712 v -6.952 H -18.145 V 20.509 H 2.712 V 13.557 H -10.497 V 0 Z"/></g><g transform="translate(390.9087,171.2774)" id="g142"><path id="path144" style="fill:#4ab969;fill-opacity:1;fill-rule:nonzero;stroke:none" d="m 0,0 h -6.883 v 48.665 h 9.595 l 7.855,-29.129 v 29.129 h 6.814 V 0 H 9.524 L 0,35.248 Z"/></g><path id="path146" style="fill:#4ab969;fill-opacity:1;fill-rule:nonzero;stroke:none" d="m 425.043,171.277 h -7.647 v 48.665 h 7.647 z"/></g></g></g></svg>